<svg width="214" height="24" viewBox="0 0 214 24" fill="none" xmlns="http://www.w3.org/2000/svg">
<g clip-path="url(#clip0_39_301)">
<rect width="57" height="24" rx="8" fill="#EBEBFF"/>
<path d="M19.56 7.66V16H18.192V12.352H14.268V16H12.9V7.66H14.268V11.236H18.192V7.66H19.56ZM27.1089 7.66V8.776H24.8889V16H23.5209V8.776H21.2889V7.66H27.1089ZM37.6384 7.66V16H36.2704V10.288L33.7264 16H32.7784L30.2224 10.288V16H28.8544V7.66H30.3304L33.2584 14.2L36.1744 7.66H37.6384ZM41.1644 14.896H43.9844V16H39.7964V7.66H41.1644V14.896Z" fill="#6070FF"/>
<rect x="65" width="49" height="24" rx="8" fill="#EBEBFF"/>
<path d="M77.444 11.812C77.444 10.996 77.632 10.264 78.008 9.616C78.392 8.968 78.908 8.464 79.556 8.104C80.212 7.736 80.928 7.552 81.704 7.552C82.592 7.552 83.38 7.772 84.068 8.212C84.764 8.644 85.268 9.26 85.58 10.06H83.936C83.72 9.62 83.42 9.292 83.036 9.076C82.652 8.86 82.208 8.752 81.704 8.752C81.152 8.752 80.66 8.876 80.228 9.124C79.796 9.372 79.456 9.728 79.208 10.192C78.968 10.656 78.848 11.196 78.848 11.812C78.848 12.428 78.968 12.968 79.208 13.432C79.456 13.896 79.796 14.256 80.228 14.512C80.66 14.76 81.152 14.884 81.704 14.884C82.208 14.884 82.652 14.776 83.036 14.56C83.42 14.344 83.72 14.016 83.936 13.576H85.58C85.268 14.376 84.764 14.992 84.068 15.424C83.38 15.856 82.592 16.072 81.704 16.072C80.92 16.072 80.204 15.892 79.556 15.532C78.908 15.164 78.392 14.656 78.008 14.008C77.632 13.36 77.444 12.628 77.444 11.812ZM90.2892 16.084C89.7292 16.084 89.2252 15.988 88.7772 15.796C88.3292 15.596 87.9772 15.316 87.7212 14.956C87.4652 14.596 87.3372 14.176 87.3372 13.696H88.8012C88.8332 14.056 88.9732 14.352 89.2212 14.584C89.4772 14.816 89.8332 14.932 90.2892 14.932C90.7612 14.932 91.1292 14.82 91.3932 14.596C91.6572 14.364 91.7892 14.068 91.7892 13.708C91.7892 13.428 91.7052 13.2 91.5372 13.024C91.3772 12.848 91.1732 12.712 90.9252 12.616C90.6852 12.52 90.3492 12.416 89.9172 12.304C89.3732 12.16 88.9292 12.016 88.5852 11.872C88.2492 11.72 87.9612 11.488 87.7212 11.176C87.4812 10.864 87.3612 10.448 87.3612 9.928C87.3612 9.448 87.4812 9.028 87.7212 8.668C87.9612 8.308 88.2972 8.032 88.7292 7.84C89.1612 7.648 89.6612 7.552 90.2292 7.552C91.0372 7.552 91.6972 7.756 92.2092 8.164C92.7293 8.564 93.0173 9.116 93.0732 9.82H91.5612C91.5372 9.516 91.3932 9.256 91.1292 9.04C90.8652 8.824 90.5172 8.716 90.0852 8.716C89.6932 8.716 89.3732 8.816 89.1252 9.016C88.8772 9.216 88.7532 9.504 88.7532 9.88C88.7532 10.136 88.8292 10.348 88.9812 10.516C89.1412 10.676 89.3412 10.804 89.5812 10.9C89.8212 10.996 90.1492 11.1 90.5652 11.212C91.1172 11.364 91.5652 11.516 91.9092 11.668C92.2612 11.82 92.5572 12.056 92.7972 12.376C93.0452 12.688 93.1693 13.108 93.1693 13.636C93.1693 14.06 93.0533 14.46 92.8213 14.836C92.5972 15.212 92.2652 15.516 91.8252 15.748C91.3932 15.972 90.8812 16.084 90.2892 16.084ZM97.8914 16.084C97.3314 16.084 96.8274 15.988 96.3794 15.796C95.9314 15.596 95.5794 15.316 95.3234 14.956C95.0674 14.596 94.9394 14.176 94.9394 13.696H96.4034C96.4354 14.056 96.5754 14.352 96.8234 14.584C97.0794 14.816 97.4354 14.932 97.8914 14.932C98.3634 14.932 98.7314 14.82 98.9954 14.596C99.2594 14.364 99.3914 14.068 99.3914 13.708C99.3914 13.428 99.3074 13.2 99.1394 13.024C98.9794 12.848 98.7754 12.712 98.5274 12.616C98.2874 12.52 97.9514 12.416 97.5194 12.304C96.9754 12.16 96.5314 12.016 96.1874 11.872C95.8514 11.72 95.5634 11.488 95.3234 11.176C95.0834 10.864 94.9634 10.448 94.9634 9.928C94.9634 9.448 95.0834 9.028 95.3234 8.668C95.5634 8.308 95.8994 8.032 96.3314 7.84C96.7634 7.648 97.2634 7.552 97.8314 7.552C98.6394 7.552 99.2994 7.756 99.8114 8.164C100.331 8.564 100.619 9.116 100.675 9.82H99.1634C99.1394 9.516 98.9954 9.256 98.7314 9.04C98.4674 8.824 98.1194 8.716 97.6874 8.716C97.2954 8.716 96.9754 8.816 96.7274 9.016C96.4794 9.216 96.3554 9.504 96.3554 9.88C96.3554 10.136 96.4314 10.348 96.5834 10.516C96.7434 10.676 96.9434 10.804 97.1834 10.9C97.4234 10.996 97.7514 11.1 98.1674 11.212C98.7194 11.364 99.1674 11.516 99.5114 11.668C99.8634 11.82 100.159 12.056 100.399 12.376C100.647 12.688 100.771 13.108 100.771 13.636C100.771 14.06 100.655 14.46 100.423 14.836C100.199 15.212 99.8674 15.516 99.4274 15.748C98.9954 15.972 98.4834 16.084 97.8914 16.084Z" fill="#6070FF"/>
<rect x="122" width="92" height="24" rx="8" fill="#EBEBFF"/>
<path d="M139.448 7.66V13.672C139.448 14.416 139.22 15.004 138.764 15.436C138.316 15.868 137.724 16.084 136.988 16.084C136.252 16.084 135.656 15.868 135.2 15.436C134.752 15.004 134.528 14.416 134.528 13.672H135.908C135.916 14.04 136.008 14.332 136.184 14.548C136.368 14.764 136.636 14.872 136.988 14.872C137.34 14.872 137.608 14.764 137.792 14.548C137.976 14.324 138.068 14.032 138.068 13.672V7.66H139.448ZM141.577 12.664C141.577 12 141.713 11.412 141.985 10.9C142.265 10.388 142.641 9.992 143.113 9.712C143.593 9.424 144.121 9.28 144.697 9.28C145.217 9.28 145.669 9.384 146.053 9.592C146.445 9.792 146.757 10.044 146.989 10.348V9.388H148.369V16H146.989V15.016C146.757 15.328 146.441 15.588 146.041 15.796C145.641 16.004 145.185 16.108 144.673 16.108C144.105 16.108 143.585 15.964 143.113 15.676C142.641 15.38 142.265 14.972 141.985 14.452C141.713 13.924 141.577 13.328 141.577 12.664ZM146.989 12.688C146.989 12.232 146.893 11.836 146.701 11.5C146.517 11.164 146.273 10.908 145.969 10.732C145.665 10.556 145.337 10.468 144.985 10.468C144.633 10.468 144.305 10.556 144.001 10.732C143.697 10.9 143.449 11.152 143.257 11.488C143.073 11.816 142.981 12.208 142.981 12.664C142.981 13.12 143.073 13.52 143.257 13.864C143.449 14.208 143.697 14.472 144.001 14.656C144.313 14.832 144.641 14.92 144.985 14.92C145.337 14.92 145.665 14.832 145.969 14.656C146.273 14.48 146.517 14.224 146.701 13.888C146.893 13.544 146.989 13.144 146.989 12.688ZM153.082 14.776L154.954 9.388H156.406L153.886 16H152.254L149.746 9.388H151.21L153.082 14.776ZM157.344 12.664C157.344 12 157.48 11.412 157.752 10.9C158.032 10.388 158.408 9.992 158.88 9.712C159.36 9.424 159.888 9.28 160.464 9.28C160.984 9.28 161.436 9.384 161.82 9.592C162.212 9.792 162.524 10.044 162.756 10.348V9.388H164.136V16H162.756V15.016C162.524 15.328 162.208 15.588 161.808 15.796C161.408 16.004 160.952 16.108 160.44 16.108C159.872 16.108 159.352 15.964 158.88 15.676C158.408 15.38 158.032 14.972 157.752 14.452C157.48 13.924 157.344 13.328 157.344 12.664ZM162.756 12.688C162.756 12.232 162.66 11.836 162.468 11.5C162.284 11.164 162.04 10.908 161.736 10.732C161.432 10.556 161.104 10.468 160.752 10.468C160.4 10.468 160.072 10.556 159.768 10.732C159.464 10.9 159.216 11.152 159.024 11.488C158.84 11.816 158.748 12.208 158.748 12.664C158.748 13.12 158.84 13.52 159.024 13.864C159.216 14.208 159.464 14.472 159.768 14.656C160.08 14.832 160.408 14.92 160.752 14.92C161.104 14.92 161.432 14.832 161.736 14.656C162.04 14.48 162.284 14.224 162.468 13.888C162.66 13.544 162.756 13.144 162.756 12.688ZM169.041 16.084C168.481 16.084 167.977 15.988 167.529 15.796C167.081 15.596 166.729 15.316 166.473 14.956C166.217 14.596 166.089 14.176 166.089 13.696H167.553C167.585 14.056 167.725 14.352 167.973 14.584C168.229 14.816 168.585 14.932 169.041 14.932C169.513 14.932 169.881 14.82 170.145 14.596C170.409 14.364 170.541 14.068 170.541 13.708C170.541 13.428 170.457 13.2 170.289 13.024C170.129 12.848 169.925 12.712 169.677 12.616C169.437 12.52 169.101 12.416 168.669 12.304C168.125 12.16 167.681 12.016 167.337 11.872C167.001 11.72 166.713 11.488 166.473 11.176C166.233 10.864 166.113 10.448 166.113 9.928C166.113 9.448 166.233 9.028 166.473 8.668C166.713 8.308 167.049 8.032 167.481 7.84C167.913 7.648 168.413 7.552 168.981 7.552C169.789 7.552 170.449 7.756 170.961 8.164C171.481 8.564 171.769 9.116 171.825 9.82H170.313C170.289 9.516 170.145 9.256 169.881 9.04C169.617 8.824 169.269 8.716 168.837 8.716C168.445 8.716 168.125 8.816 167.877 9.016C167.629 9.216 167.505 9.504 167.505 9.88C167.505 10.136 167.581 10.348 167.733 10.516C167.893 10.676 168.093 10.804 168.333 10.9C168.573 10.996 168.901 11.1 169.317 11.212C169.869 11.364 170.317 11.516 170.661 11.668C171.013 11.82 171.309 12.056 171.549 12.376C171.797 12.688 171.921 13.108 171.921 13.636C171.921 14.06 171.805 14.46 171.573 14.836C171.349 15.212 171.017 15.516 170.577 15.748C170.145 15.972 169.633 16.084 169.041 16.084ZM173.439 12.688C173.439 12.008 173.575 11.412 173.847 10.9C174.127 10.38 174.511 9.98 174.999 9.7C175.487 9.42 176.047 9.28 176.679 9.28C177.479 9.28 178.139 9.472 178.659 9.856C179.187 10.232 179.543 10.772 179.727 11.476H178.251C178.131 11.148 177.939 10.892 177.675 10.708C177.411 10.524 177.079 10.432 176.679 10.432C176.119 10.432 175.671 10.632 175.335 11.032C175.007 11.424 174.843 11.976 174.843 12.688C174.843 13.4 175.007 13.956 175.335 14.356C175.671 14.756 176.119 14.956 176.679 14.956C177.471 14.956 177.995 14.608 178.251 13.912H179.727C179.535 14.584 179.175 15.12 178.647 15.52C178.119 15.912 177.463 16.108 176.679 16.108C176.047 16.108 175.487 15.968 174.999 15.688C174.511 15.4 174.127 15 173.847 14.488C173.575 13.968 173.439 13.368 173.439 12.688ZM182.819 10.348C183.019 10.012 183.283 9.752 183.611 9.568C183.947 9.376 184.343 9.28 184.799 9.28V10.696H184.451C183.915 10.696 183.507 10.832 183.227 11.104C182.955 11.376 182.819 11.848 182.819 12.52V16H181.451V9.388H182.819V10.348ZM187.112 8.512C186.864 8.512 186.656 8.428 186.488 8.26C186.32 8.092 186.236 7.884 186.236 7.636C186.236 7.388 186.32 7.18 186.488 7.012C186.656 6.844 186.864 6.76 187.112 6.76C187.352 6.76 187.556 6.844 187.724 7.012C187.892 7.18 187.976 7.388 187.976 7.636C187.976 7.884 187.892 8.092 187.724 8.26C187.556 8.428 187.352 8.512 187.112 8.512ZM187.784 9.388V16H186.416V9.388H187.784ZM191.308 10.36C191.54 10.056 191.856 9.8 192.256 9.592C192.656 9.384 193.108 9.28 193.612 9.28C194.188 9.28 194.712 9.424 195.184 9.712C195.664 9.992 196.04 10.388 196.312 10.9C196.584 11.412 196.72 12 196.72 12.664C196.72 13.328 196.584 13.924 196.312 14.452C196.04 14.972 195.664 15.38 195.184 15.676C194.712 15.964 194.188 16.108 193.612 16.108C193.108 16.108 192.66 16.008 192.268 15.808C191.876 15.6 191.556 15.344 191.308 15.04V19.144H189.94V9.388H191.308V10.36ZM195.328 12.664C195.328 12.208 195.232 11.816 195.04 11.488C194.856 11.152 194.608 10.9 194.296 10.732C193.992 10.556 193.664 10.468 193.312 10.468C192.968 10.468 192.64 10.556 192.328 10.732C192.024 10.908 191.776 11.164 191.584 11.5C191.4 11.836 191.308 12.232 191.308 12.688C191.308 13.144 191.4 13.544 191.584 13.888C191.776 14.224 192.024 14.48 192.328 14.656C192.64 14.832 192.968 14.92 193.312 14.92C193.664 14.92 193.992 14.832 194.296 14.656C194.608 14.472 194.856 14.208 195.04 13.864C195.232 13.52 195.328 13.12 195.328 12.664ZM200.029 10.504V14.164C200.029 14.412 200.085 14.592 200.197 14.704C200.317 14.808 200.517 14.86 200.797 14.86H201.637V16H200.557C199.941 16 199.469 15.856 199.141 15.568C198.813 15.28 198.649 14.812 198.649 14.164V10.504H197.869V9.388H198.649V7.744H200.029V9.388H201.637V10.504H200.029Z" fill="#6070FF"/>
</g>
<defs>
<clipPath id="clip0_39_301">
<rect width="214" height="24" fill="white"/>
</clipPath>
</defs>
</svg>
